<svg width="145" height="143" viewBox="0 0 145 143" fill="none" xmlns="http://www.w3.org/2000/svg">
<path fill-rule="evenodd" clip-rule="evenodd" d="M144.576 59.2411V79.7145L131.867 79.8193C130.63 89.3456 127.007 98.4104 121.328 106.181L132.183 117.351L117.303 131.6L106.617 120.578C100.028 125.062 92.5928 128.17 84.7607 129.714V143H64.1901V130.029C55.4056 128.76 47.0329 125.497 39.7203 120.494L30.7839 129.316L16.2201 114.647L25.0933 105.993C19.5069 98.2193 15.9442 89.191 14.7236 79.7145H0.475952V59.2411H15.2295C17.0585 51.0933 20.655 43.4409 25.7677 36.8187L17.5268 28.3318L32.4068 14.0821L40.8374 22.8205C47.8077 18.2143 55.7317 15.2276 64.0215 14.0821V0H84.5921V14.3964C92.9608 16.0545 100.87 19.493 107.776 24.476L118.314 14.1659L132.794 28.709L122.256 39.1867C126.387 45.2671 129.32 52.0725 130.897 59.2411H144.576ZM38.4347 72.1496C38.4114 91.211 53.934 106.682 73.1055 106.705C82.317 106.733 91.1606 103.113 97.6821 96.6445C104.204 90.1762 107.866 81.3922 107.861 72.2334C107.884 53.1721 92.3612 37.7011 73.1898 37.678C54.0184 37.6548 38.458 53.0883 38.4347 72.1496Z" fill="#505F98"/>
</svg>
